<svg width="16" height="17" viewBox="0 0 16 17" fill="none" xmlns="http://www.w3.org/2000/svg">
<path d="M12.8927 9.79219V12.7522C12.8925 13.171 12.7261 13.5726 12.4299 13.8688C12.1338 14.1649 11.7322 14.3314 11.3134 14.3315H3.57936C3.3712 14.3314 3.1651 14.2902 2.97292 14.2102C2.78073 14.1303 2.60625 14.0131 2.45949 13.8655C2.31273 13.7178 2.19659 13.5427 2.11774 13.35C2.03889 13.1574 1.99889 12.951 2.00003 12.7429V5.01753C1.99879 4.80969 2.03881 4.60368 2.11778 4.41143C2.19674 4.21917 2.31307 4.0445 2.46004 3.89754C2.607 3.75057 2.78167 3.63424 2.97393 3.55528C3.16618 3.47631 3.37219 3.43629 3.58003 3.43753H6.53936" stroke="black" stroke-linecap="round" stroke-linejoin="round"/>
<path d="M12.894 6.1638L10.1707 3.4398M4.724 10.7025V9.25913C4.72533 9.02113 4.82 8.79247 4.98733 8.6238L11.342 2.26913C11.4263 2.18387 11.5267 2.11618 11.6374 2.06998C11.748 2.02379 11.8668 2 11.9867 2C12.1066 2 12.2253 2.02379 12.336 2.06998C12.4466 2.11618 12.547 2.18387 12.6313 2.26913L14.0653 3.70313C14.1506 3.78745 14.2183 3.88785 14.2645 3.9985C14.3107 4.10916 14.3345 4.22789 14.3345 4.3478C14.3345 4.46771 14.3107 4.58644 14.2645 4.69709C14.2183 4.80775 14.1506 4.90815 14.0653 4.99247L7.71067 11.3471C7.54169 11.5149 7.31348 11.6095 7.07533 11.6105H5.632C5.51271 11.6106 5.39456 11.5873 5.28432 11.5417C5.17407 11.4961 5.07391 11.4293 4.98956 11.3449C4.9052 11.2606 4.83833 11.1604 4.79276 11.0502C4.74719 10.9399 4.72382 10.8218 4.724 10.7025Z" stroke="black" stroke-linecap="round" stroke-linejoin="round"/>
</svg>
